<?xml version="1.0" standalone="no"?>
<!DOCTYPE svg PUBLIC "-//W3C//DTD SVG 20010904//EN"
 "http://www.w3.org/TR/2001/REC-SVG-20010904/DTD/svg10.dtd">
<svg version="1.0" xmlns="http://www.w3.org/2000/svg"
 width="358.000000pt" height="358.000000pt" viewBox="0 0 358.000000 358.000000"
 preserveAspectRatio="xMidYMid meet">
<metadata>
Created by potrace 1.11, written by Peter Selinger 2001-2013
</metadata>
<g transform="translate(0.000000,358.000000) scale(0.100000,-0.100000)"
fill="#000000" stroke="none">
<path d="M1680 3566 c-3 -2 -43 -7 -89 -10 -46 -4 -91 -11 -101 -16 -10 -5
-20 -7 -22 -4 -3 2 -25 0 -49 -6 -24 -6 -55 -13 -69 -16 -13 -3 -29 -9 -36
-15 -6 -5 -13 -6 -16 -3 -10 9 -197 -65 -309 -122 -223 -114 -391 -246 -556
-439 -24 -28 -49 -57 -56 -65 -23 -26 -92 -132 -136 -208 -108 -192 -187 -426
-218 -647 -17 -125 -5 -464 22 -590 15 -74 55 -212 75 -260 117 -287 214 -438
405 -630 72 -72 148 -145 170 -161 22 -16 49 -37 59 -46 11 -10 26 -18 33 -18
7 0 13 -4 13 -10 0 -5 7 -10 15 -10 8 0 15 -4 15 -8 0 -4 24 -20 53 -36 28
-15 80 -42 114 -61 35 -18 63 -31 63 -28 0 3 6 0 13 -6 8 -6 17 -8 20 -4 4 3
7 2 7 -4 0 -9 27 -21 60 -27 3 -1 10 -4 15 -7 35 -22 303 -94 313 -85 3 3 12
0 20 -6 17 -15 469 -20 535 -7 23 5 59 11 79 14 65 8 302 79 326 98 6 5 12 7
12 4 0 -3 57 23 128 58 150 75 301 177 397 269 38 36 73 66 77 66 4 0 8 3 8 8
0 4 23 32 51 62 96 104 259 342 259 379 0 6 5 11 12 11 6 0 9 3 5 6 -3 4 12
42 34 85 21 44 37 79 34 79 -3 0 1 13 10 30 8 16 15 31 15 32 -1 2 1 10 3 18
29 90 37 123 39 145 1 14 5 25 8 25 3 0 7 10 7 23 1 12 5 36 9 52 13 55 7 650
-6 650 -2 0 -18 66 -24 102 -1 7 -5 16 -9 19 -4 4 -7 19 -7 34 0 15 -3 29 -6
33 -4 3 -16 35 -29 70 -29 84 -44 118 -81 191 -61 119 -107 201 -125 222 -11
11 -19 26 -19 33 0 7 -4 9 -10 6 -5 -3 -10 -2 -10 3 0 36 -227 268 -368 377
-7 6 -19 16 -27 23 -7 6 -18 12 -24 12 -6 0 -11 5 -11 10 0 6 -5 10 -11 10 -6
0 -29 13 -52 29 -107 73 -377 189 -507 217 -19 4 -39 9 -45 10 -39 9 -76 15
-110 20 -22 3 -53 7 -70 10 -46 6 -320 16 -325 10z"/>
</g>
</svg>
